HIERARCHY
ROOT hip
{
  OFFSET 0 0 0
  CHANNELS 6 Xposition Yposition Zposition Zrotation Yrotation Xrotation
  JOINT abdomen
  {
    OFFSET 0 20.6881 -0.73152
    CHANNELS 3 Zrotation Xrotation Yrotation
    JOINT chest
    {
      OFFSET 0 11.7043 -0.48768
      CHANNELS 3 Zrotation Xrotation Yrotation
      JOINT neck
      {
        OFFSET 0 22.1894 -2.19456
        CHANNELS 3 Zrotation Xrotation Yrotation
        JOINT head
        {
          OFFSET -0.24384 7.07133 1.2192
          CHANNELS 3 Zrotation Xrotation Yrotation
          JOINT leftEye
          {
            OFFSET 4.14528 8.04674 8.04672
            CHANNELS 3 Zrotation Xrotation Yrotation
            End Site
            {
              OFFSET 1 0 0
            }
          }
          JOINT rightEye
          {
            OFFSET -3.6576 8.04674 8.04672
            CHANNELS 3 Zrotation Xrotation Yrotation
            End Site
            {
              OFFSET 1 0 0
            }
          }
        }
      }
      JOINT rCollar
      {
        OFFSET -2.68224 19.2634 -4.8768
        CHANNELS 3 Zrotation Xrotation Yrotation
        JOINT rShldr
        {
          OFFSET -8.77824 -1.95073 1.46304
          CHANNELS 3 Zrotation Xrotation Yrotation
          JOINT rForeArm
          {
            OFFSET -28.1742 -1.7115 0.48768
            CHANNELS 3 Zrotation Xrotation Yrotation
            JOINT rHand
            {
              OFFSET -22.5879 0.773209 7.07136
              CHANNELS 3 Zrotation Xrotation Yrotation
              JOINT rThumb1
              {
                OFFSET -1.2192 -0.487915 3.41376
                CHANNELS 3 Zrotation Xrotation Yrotation
                JOINT rThumb2
                {
                  OFFSET -3.37035 -0.52449 3.41376
                  CHANNELS 3 Zrotation Xrotation Yrotation
                  End Site
                  {
                    OFFSET -1.78271 -1.18214 1.43049
                  }
                }
              }
              JOINT rIndex1
              {
                OFFSET -7.75947 0.938293 5.60832
                CHANNELS 3 Zrotation Xrotation Yrotation
                JOINT rIndex2
                {
                  OFFSET -2.54057 -0.884171 1.56538
                  CHANNELS 3 Zrotation Xrotation Yrotation
                  End Site
                  {
                    OFFSET -1.62519 -0.234802 1.16502
                  }
                }
              }
              JOINT rMid1
              {
                OFFSET -8.24714 1.18213 3.41376
                CHANNELS 3 Zrotation Xrotation Yrotation
                JOINT rMid2
                {
                  OFFSET -3.10165 -0.590103 1.0647
                  CHANNELS 3 Zrotation Xrotation Yrotation
                  End Site
                  {
                    OFFSET -2.48547 -0.328903 0.83742
                  }
                }
              }
              JOINT rRing1
              {
                OFFSET -8.82822 0.546677 1.51678
                CHANNELS 3 Zrotation Xrotation Yrotation
                JOINT rRing2
                {
                  OFFSET -2.60934 -0.819778 -0.0198488
                  CHANNELS 3 Zrotation Xrotation Yrotation
                  End Site
                  {
                    OFFSET -2.33842 -0.294052 0.168128
                  }
                }
              }
              JOINT rPinky1
              {
                OFFSET -8.27202 -0.0477905 -0.4584
                CHANNELS 3 Zrotation Xrotation Yrotation
                JOINT rPinky2
                {
                  OFFSET -1.82734 -0.647385 -0.700984
                  CHANNELS 3 Zrotation Xrotation Yrotation
                  End Site
                  {
                    OFFSET -1.69225 -0.51767 -0.607171
                  }
                }
              }
            }
          }
        }
      }
      JOINT lCollar
      {
        OFFSET 2.68224 19.2634 -4.8768
        CHANNELS 3 Zrotation Xrotation Yrotation
        JOINT lShldr
        {
          OFFSET 8.77824 -1.95073 1.46304
          CHANNELS 3 Zrotation Xrotation Yrotation
          JOINT lForeArm
          {
            OFFSET 28.1742 -1.7115 0.48768
            CHANNELS 3 Zrotation Xrotation Yrotation
            JOINT lHand
            {
              OFFSET 22.5879 0.773209 7.07136
              CHANNELS 3 Zrotation Xrotation Yrotation
              JOINT lThumb1
              {
                OFFSET 1.2192 -0.487915 3.41376
                CHANNELS 3 Zrotation Xrotation Yrotation
                JOINT lThumb2
                {
                  OFFSET 3.37035 -0.52449 3.41376
                  CHANNELS 3 Zrotation Xrotation Yrotation
                  End Site
                  {
                    OFFSET 1.78271 -1.18214 1.43049
                  }
                }
              }
              JOINT lIndex1
              {
                OFFSET 7.75947 0.938293 5.60832
                CHANNELS 3 Zrotation Xrotation Yrotation
                JOINT lIndex2
                {
                  OFFSET 2.54057 -0.884171 1.56538
                  CHANNELS 3 Zrotation Xrotation Yrotation
                  End Site
                  {
                    OFFSET 1.62519 -0.234802 1.16502
                  }
                }
              }
              JOINT lMid1
              {
                OFFSET 8.24714 1.18213 3.41376
                CHANNELS 3 Zrotation Xrotation Yrotation
                JOINT lMid2
                {
                  OFFSET 3.10165 -0.590103 1.0647
                  CHANNELS 3 Zrotation Xrotation Yrotation
                  End Site
                  {
                    OFFSET 2.48547 -0.328903 0.83742
                  }
                }
              }
              JOINT lRing1
              {
                OFFSET 8.82822 0.546677 1.51678
                CHANNELS 3 Zrotation Xrotation Yrotation
                JOINT lRing2
                {
                  OFFSET 2.60934 -0.819778 -0.0198488
                  CHANNELS 3 Zrotation Xrotation Yrotation
                  End Site
                  {
                    OFFSET 2.33842 -0.294052 0.168128
                  }
                }
              }
              JOINT lPinky1
              {
                OFFSET 8.27202 -0.0477905 -0.4584
                CHANNELS 3 Zrotation Xrotation Yrotation
                JOINT lPinky2
                {
                  OFFSET 1.82734 -0.647385 -0.700984
                  CHANNELS 3 Zrotation Xrotation Yrotation
                  End Site
                  {
                    OFFSET 1.69225 -0.51767 -0.607171
                  }
                }
              }
            }
          }
        }
      }
    }
  }
  JOINT rButtock
  {
    OFFSET -8.77824 4.35084 1.2192
    CHANNELS 3 Zrotation Xrotation Yrotation
    JOINT rThigh
    {
      OFFSET 0 -1.70687 -2.19456
      CHANNELS 3 Zrotation Xrotation Yrotation
      JOINT rShin
      {
        OFFSET 0 -36.8199 0.73152
        CHANNELS 3 Zrotation Xrotation Yrotation
        JOINT rFoot
        {
          OFFSET 0.73152 -45.1104 -5.12064
          CHANNELS 3 Zrotation Xrotation Yrotation
          End Site
          {
            OFFSET -1.1221 -3.69964 12.103
          }
        }
      }
    }
  }
  JOINT lButtock
  {
    OFFSET 8.77824 4.35084 1.2192
    CHANNELS 3 Zrotation Xrotation Yrotation
    JOINT lThigh
    {
      OFFSET 0 -1.70687 -2.19456
      CHANNELS 3 Zrotation Xrotation Yrotation
      JOINT lShin
      {
        OFFSET 0 -36.8199 0.73152
        CHANNELS 3 Zrotation Xrotation Yrotation
        JOINT lFoot
        {
          OFFSET -0.73152 -45.1104 -5.12064
          CHANNELS 3 Zrotation Xrotation Yrotation
          End Site
          {
            OFFSET 1.1221 -3.69964 12.103
          }
        }
      }
    }
  }
}
MOTION
Frames:	5
Frame Time:	0.00833333
0.0 0.0 0.0 0.0 0.0 0.0 0.0 0.0 0.0 0.0 0.0 0.0 0.0 0.0 0.0 0.0 0.0 0.0 0.0 0.0 0.0 0.0 0.0 0.0 0.0 0.0 0.0 0.0 0.0 0.0 0.0 0.0 0.0 0.0 0.0 0.0 0.0 0.0 0.0 0.0 0.0 0.0 0.0 0.0 0.0 0.0 0.0 0.0 0.0 0.0 0.0 0.0 0.0 0.0 0.0 0.0 0.0 0.0 0.0 0.0 0.0 0.0 0.0 0.0 0.0 0.0 0.0 0.0 0.0 0.0 0.0 0.0 0.0 0.0 0.0 0.0 0.0 0.0 0.0 0.0 0.0 0.0 0.0 0.0 0.0 0.0 0.0 0.0 0.0 0.0 0.0 0.0 0.0 0.0 0.0 0.0 0.0 0.0 0.0 0.0 0.0 0.0 0.0 0.0 0.0 0.0 0.0 0.0 0.0 0.0 0.0 0.0 0.0 0.0 0.0 0.0 0.0 0.0 0.0 0.0 0.0 0.0 0.0 0.0 0.0 0.0 0.0 0.0 0.0 0.0 0.0 0.0
-11.3021 60.948 -182.195 0.0 -0.0 0.0 -0.0 -0.0 -0.0 0.0 0.0 -0.0 -8.144362 10.101976 -79.678508 11.382902 6.215336 79.779518 -0.0 -0.0 0.0 -0.0 -0.0 0.0 -142.586389 40.121077 146.977594 22.082363 -5.558969 6.731841 86.081843 75.372215 -110.417401 -172.115471 34.162281 142.80731 -166.631339 -4.304864 89.77151 121.773742 -56.863525 86.234932 12.216524 -21.784719 -5.120188 -78.408686 44.340977 54.703299 6.908911 -21.623998 -2.809719 -157.638031 17.693665 138.031943 -0.021291 -1.725169 -0.542387 0.888125 -11.319478 -1.030715 -14.102891 -26.511289 -13.432208 -129.185114 -31.952209 -126.514137 159.220516 -48.028485 -170.415257 164.503651 -3.538009 -157.712414 -166.076675 1.147089 -154.361199 166.393301 45.382008 -139.522083 -114.538671 -50.245352 -55.721798 132.439572 25.425599 -87.694533 -2.325555 -3.867927 1.259147 -179.647823 -23.360215 -107.803936 0.571049 1.648356 -0.322148 175.070864 -30.844877 -144.212674 145.119465 0.267731 179.212447 -21.064382 6.459741 8.268335 -6.227694 18.789635 -5.573717 6.175027 -13.674929 5.949129 -180.0 75.749642 -0.0 -180.0 73.473292 -180.0 5.025459 -5.947284 123.870029 -1.319393 -7.283167 59.66918 -180.0 75.749642 -0.0 -180.0 73.473292 -180.0 5.864878 -4.414665 123.647879 14.394352 18.625466 49.322579
-11.2968 60.94690000000001 -182.196 0.0 -0.0 0.0 -0.0 -0.0 -0.0 -0.0 0.0 -0.0 1.681211 -0.191291 9.638157 -1.625502 0.469952 -9.628684 0.0 -0.0 -0.0 0.0 -0.0 -0.0 -157.043593 -14.998717 164.13772 -139.75298 37.380216 151.901797 5.434691 14.585611 0.324866 -5.85393 18.378568 0.312714 71.831195 -48.263725 25.791675 -12.09548 -41.985044 -31.084701 10.746993 -19.048016 -4.725035 9.886401 -8.834433 2.497975 -36.036059 51.723116 29.832321 -171.458871 -29.858212 147.139092 -0.014868 -1.323148 -0.415899 -162.698164 25.393176 167.625706 -150.431381 30.475153 -146.249425 75.218095 83.263797 -35.256645 155.61387 -4.23638 -161.991154 152.333916 6.480625 -161.141277 178.129948 7.904401 -144.614505 -170.750986 -16.255791 -143.909793 -71.831195 -48.263725 -25.791675 158.332947 -38.941315 -132.382035 145.338335 -6.264511 -118.677783 -13.947217 13.74432 10.393933 -0.541241 -1.589941 0.294737 -60.980967 -75.985552 -36.699228 -0.000171 0.022623 -0.007107 165.726575 -0.834019 -171.883939 43.363118 -47.546704 42.161842 21.676326 -41.008927 21.682875 -0.0 -0.0 -0.0 -0.0 0.0 -0.0 3.675247 0.535411 32.83185 5.020399 -5.424377 -35.84772 -0.0 -0.0 -0.0 -0.0 0.0 -0.0 -3.819913 0.604099 -34.22701 130.918447 0.177607 -45.517478
-11.271 60.9456 -182.18 -0.0 -0.0 0.0 -0.0 -0.0 -0.0 0.0 0.0 -0.0 3.603713 -0.062968 20.618464 -3.351337 1.327123 -20.577658 -0.0 0.0 -0.0 -0.0 0.0 -0.0 -27.420961 56.66532 29.76684 12.602464 13.829857 -2.816719 80.621777 -88.018547 76.977179 -4.576099 14.509826 0.083389 -179.373341 -16.877168 89.359733 -168.613955 -5.384039 92.784356 -138.763944 4.487785 115.031946 -32.012663 57.534342 23.840943 -36.036059 51.723116 29.832321 -161.021861 7.366378 144.265283 0.000474 0.063775 0.020036 0.013059 -0.253789 -0.043892 1.134951 3.04054 1.043633 -0.89967 -2.247234 -0.854237 -0.163072 -0.990049 0.218539 0.540347 13.994801 -1.064061 -67.721018 -71.678013 -56.563214 38.300759 65.092752 -22.337069 5.433768 5.264911 -1.077842 -165.105368 -78.983607 -86.655633 -60.461659 -70.523647 -15.71111 174.676851 -32.337148 -101.272676 175.766492 -50.334504 -144.098384 147.852345 25.399475 -134.105672 73.163647 -72.142466 90.198134 -7.865251 29.726272 -11.534988 135.068796 -13.384184 132.47003 20.948143 -40.182268 24.546682 -0.0 -0.0 -0.0 -0.0 -2.27635 -180.0 -6.915612 -5.993495 -107.165566 -134.9905 40.965066 65.860361 -0.0 -0.0 -0.0 -0.0 -2.27635 -180.0 7.541591 -9.188343 78.559191 170.768979 66.120363 -103.598938
-11.3045 60.9457 -182.199 -0.0 -0.0 0.0 -0.0 -0.0 -0.0 0.0 0.0 -0.0 3.603713 -0.062968 20.618464 -3.351337 1.327123 -20.577658 -0.0 0.0 -0.0 -0.0 0.0 -0.0 -27.420961 56.66532 29.76684 -52.436606 89.05508 66.970462 2.705178 2.519827 -33.400156 167.819175 -24.099862 142.623937 3.024903 -3.006688 -0.387008 -98.463798 16.492381 89.572759 -173.324303 -52.381865 120.007503 -162.951633 -34.105338 110.750646 -39.289155 53.36602 32.877985 -164.215937 -4.018859 145.914673 -145.108492 3.677793 179.715527 -68.65364 -77.248273 -100.215118 -1.149411 -2.914417 -1.065731 -130.980966 -29.559699 -126.970004 -0.163072 -0.990049 0.218539 0.540347 13.994801 -1.064061 1.553674 -7.33665 1.270379 -1.78161 -5.638285 -0.281049 78.030619 38.689342 -42.41267 -22.22742 -25.459943 -20.033234 -37.215945 -57.917763 0.643014 171.293741 -24.657674 -102.5658 -173.123457 -66.297779 -137.614274 7.618634 25.712406 -9.365209 0.000142 -0.018533 0.005823 85.007293 78.759124 -88.075121 0.344362 -0.890269 0.318422 140.105418 -14.2404 135.379182 -0.0 -0.0 -0.0 -0.0 -2.27635 -180.0 -6.915612 -5.993495 -107.165566 -134.9905 40.965066 65.860361 -0.0 -0.0 -0.0 -0.0 -2.27635 -180.0 7.541591 -9.188343 78.559191 170.768979 66.120363 -103.598938
